<svg width="34" height="27" viewBox="0 0 34 27" fill="none" xmlns="http://www.w3.org/2000/svg">
<path d="M4.10243 0.827515L7.40243 7.32751H12.3524L9.05243 0.827515H12.3524L15.6524 7.32751H20.6024L17.3024 0.827515H20.6024L23.9024 7.32751H28.8524L25.5524 0.827515H30.5024C31.4099 0.827515 32.1871 1.14601 32.8339 1.78301C33.4807 2.42001 33.8035 3.18485 33.8024 4.07751V23.5775C33.8024 24.4713 33.4796 25.2366 32.8339 25.8736C32.1882 26.5106 31.411 26.8286 30.5024 26.8275H4.10243C3.19493 26.8275 2.41833 26.5096 1.77263 25.8736C1.12693 25.2377 0.803529 24.4723 0.802429 23.5775V4.07751C0.802429 3.18376 1.12583 2.41893 1.77263 1.78301C2.41943 1.1471 3.19603 0.828598 4.10243 0.827515Z" fill="white"/>
</svg>
