<svg width="38" height="39" viewBox="0 0 38 39" fill="none" xmlns="http://www.w3.org/2000/svg">
<path d="M15.0561 0C6.74964 0 0 6.76948 0 15.1004C0 23.4312 6.74964 30.2007 15.0561 30.2007C18.3427 30.2007 21.3802 29.139 23.8572 27.3416L35.5091 39L38 36.5018L26.4865 24.9267C28.7491 22.2827 30.1122 18.8512 30.1122 15.1004C30.1122 6.76948 23.3625 0 15.0561 0ZM15.0561 1.77651C22.4042 1.77651 28.3409 7.73061 28.3409 15.1004C28.3409 22.4701 22.4042 28.4242 15.0561 28.4242C7.70794 28.4242 1.7713 22.4701 1.7713 15.1004C1.7713 7.73061 7.70794 1.77651 15.0561 1.77651Z" fill="black"/>
</svg>
